# xmcd
# 
# Track frame offsets:
#     150
#     16934
#     40580
#     56997
#     78935
#     96104
#     111742
#     128532
# 
# Disc length: 2017
# 
# Revision: 0
# Processed by: cddbd v1.5.2PL0 Copyright (c) Steve Scherf et al.
# Submitted via: fre:ac v1.0.17
# 
DISCID=6007df08
DTITLE=etsuco - わすれもの
DYEAR=2013
DGENRE=JPop
TTITLE0=TOP RUNNER
TTITLE1=いつか…
TTITLE2=TIME
TTITLE3=STAND UP!!
TTITLE4=Highway Driving Car
TTITLE5=LUV U
TTITLE6=LAST LOVE SONG
TTITLE7=やさしく手を握って〜27才のラブレター〜
EXTD=
EXTT0=
EXTT1=
EXTT2=
EXTT3=
EXTT4=
EXTT5=
EXTT6=
EXTT7=
PLAYORDER=
